#!OML:ASF E:\Steps\Project 1\Capture day 1\Session 2\Subject.ASF
:FULLY-SPECIFIED
:DEGREES
100
root 22.8438 16.3676 30.4892 -152.402 -0.253852 177.469
lowerback -31.426 -1.50667 -6.80849
upperback -0.895064 -0.132513 -0.585786
thorax 15.4239 -0.81283 2.91478
lowerneck 2.7709 -1.68452 -5.06815
upperneck 4.61706 -3.29662 12.4293
head 1.17425 -1.81956 4.54944
rclavicle 3.08116e-015 1.09332e-014
rhumerus -37.5871 -20.8445 -77.405
rradius 31.6404
rwrist -2.1975
rhand -8.27964 -54.6899
rfingers 7.12502
rthumb 17.6398 -83.9097
lclavicle 3.08116e-015 1.09332e-014
lhumerus -28.769 6.60456 80.8518
lradius 21.0958
lwrist -5.35882
lhand -22.2515 -10.1315
lfingers 7.12502
lthumb 4.16587 19.8076
rfemur -21.2267 5.14316 19.5444
rtibia 4.70502
rfoot -18.0275 -8.92733
rtoes -36.3902
lfemur -24.352 -9.62152 -19.0502
ltibia 8.54312
lfoot -7.72108 -0.694013
ltoes -31.7989
101
root 22.8422 16.37 30.4856 -152.526 -0.276439 177.446
lowerback -31.3541 -1.45876 -6.74607
upperback -0.833744 -0.0738667 -0.642685
thorax 15.4599 -0.778166 2.8453
lowerneck 2.76976 -1.72842 -4.99629
upperneck 4.52987 -3.34453 12.4302
head 1.1524 -1.84373 4.53745
rclavicle -6.31141e-015 1.63003e-014
rhumerus -37.5713 -20.8304 -77.4955
rradius 31.7189
rwrist -2.31003
rhand -8.47975 -54.5003
rfingers 7.12502
rthumb 17.4472 -83.7373
lclavicle -6.31141e-015 1.63003e-014
lhumerus -28.67 6.15244 81.0302
lradius 21.4241
lwrist -5.14055
lhand -22.4351 -9.36857
lfingers 7.12502
lthumb 3.98857 20.5738
rfemur -21.0544 4.55131 19.5716
rtibia 4.57865
rfoot -17.9837 -8.4381
rtoes -36.4621
lfemur -24.1688 -10.0122 -18.9992
ltibia 8.44195
lfoot -7.77009 -0.394023
ltoes -30.7838
102
root 22.8476 16.3712 30.4882 -152.549 -0.303564 177.388
lowerback -31.281 -1.49737 -6.84172
upperback -0.802516 -0.0873767 -0.639599
thorax 15.4645 -0.788728 2.89626
lowerneck 2.67736 -1.74879 -4.9802
upperneck 4.53546 -3.3678 12.4254
head 1.17123 -1.85092 4.53169
rclavicle 6.31141e-015 -2.10712e-014
rhumerus -37.4519 -20.8098 -77.5312
rradius 31.6843
rwrist -2.33682
rhand -8.5119 -54.1275
rfingers 7.12502
rthumb 17.4162 -83.3672
lclavicle 6.31141e-015 -2.10712e-014
lhumerus -28.5283 5.91085 81.1867
lradius 21.693
lwrist -4.93291
lhand -22.5398 -10.6998
lfingers 7.12502
lthumb 3.88753 19.2445
rfemur -21.013 5.22957 19.4542
rtibia 4.62744
rfoot -18.1438 -9.08111
rtoes -35.873
lfemur -24.1354 -10.0684 -19.0347
ltibia 8.42217
lfoot -7.72279 -0.40471
ltoes -30.2963
103
root 22.8483 16.37 30.4838 -152.598 -0.280902 177.39
lowerback -31.278 -1.50994 -6.82301
upperback -0.767193 -0.106138 -0.615024
thorax 15.5077 -0.795728 2.9062
lowerneck 2.62473 -1.73459 -5.01592
upperneck 4.57786 -3.35015 12.4158
head 1.19115 -1.83931 4.53399
rclavicle 1.2275e-014 -6.02318e-014
rhumerus -37.3274 -20.87 -77.4731
rradius 31.5741
rwrist -2.26899
rhand -8.40214 -53.9366
rfingers 7.12502
rthumb 17.5219 -83.167
lclavicle 1.2275e-014 -6.02318e-014
lhumerus -28.4702 5.86483 81.312
lradius 21.9875
lwrist -4.74113
lhand -21.9463 -9.90603
lfingers 7.12502
lthumb 4.46066 20.027
rfemur -20.9117 4.6751 19.5554
rtibia 4.5482
rfoot -18.2363 -8.46561
rtoes -35.5843
lfemur -24.0359 -10.2951 -19.0107
ltibia 8.39587
lfoot -7.79715 -0.122261
ltoes -31.3146
104
root 22.8509 16.3706 30.4833 -152.616 -0.261916 177.399
lowerback -31.2532 -1.51796 -6.84067
upperback -0.780282 -0.118233 -0.58376
thorax 15.4823 -0.802448 2.9454
lowerneck 2.75365 -1.66835 -5.04879
upperneck 4.56655 -3.2625 12.3985
head 1.15872 -1.80124 4.53699
rclavicle -7.20594e-015 2.50469e-014
rhumerus -37.3304 -20.7923 -77.4437
rradius 31.5951
rwrist -2.34549
rhand -8.28476 -54.1693
rfingers 7.12502
rthumb 17.6348 -83.3895
lclavicle -7.20594e-015 2.50469e-014
lhumerus -28.4554 5.7055 81.463
lradius 22.2483
lwrist -4.50377
lhand -21.4838 -9.90324
lfingers 7.12502
lthumb 4.90719 20.0199
rfemur -20.8585 4.3804 19.6245
rtibia 4.44189
rfoot -18.1436 -8.1258
rtoes -35.6812
lfemur -24.0341 -9.93381 -19.0802
ltibia 8.42761
lfoot -7.79009 -0.517319
ltoes -31.3491
105
root 22.8546 16.3718 30.486 -152.561 -0.252572 177.393
lowerback -31.2857 -1.50757 -6.85964
upperback -0.789279 -0.0964177 -0.600735
thorax 15.4834 -0.794957 2.94518
lowerneck 2.79845 -1.60377 -5.04099
upperneck 4.65864 -3.18703 12.3642
head 1.17074 -1.76454 4.52622
rclavicle -6.70898e-015 1.80894e-014
rhumerus -37.3424 -20.6479 -77.543
rradius 31.7
rwrist -2.45452
rhand -8.28885 -54.4066
rfingers 7.12502
rthumb 17.6309 -83.6272
lclavicle -6.70898e-015 1.80894e-014
lhumerus -28.3445 5.3478 81.6023
lradius 22.4374
lwrist -4.26265
lhand -21.4998 -10.1329
lfingers 7.12502
lthumb 4.89179 19.7907
rfemur -21.0598 4.03795 19.7067
rtibia 4.67498
rfoot -18.1758 -7.84287
rtoes -36.1168
lfemur -24.1148 -10.2724 -18.9752
ltibia 8.43475
lfoot -7.76973 -0.234127
ltoes -30.8371
106
root 22.8588 16.3728 30.4886 -152.503 -0.279901 177.404
lowerback -31.2957 -1.48703 -6.83886
upperback -0.787211 -0.071299 -0.636462
thorax 15.4878 -0.781797 2.90489
lowerneck 2.65249 -1.59593 -4.98729
upperneck 4.84448 -3.19306 12.324
head 1.2485 -1.75927 4.50222
rclavicle -5.46658e-016 -5.56597e-015
rhumerus -37.2967 -20.6363 -77.6626
rradius 31.7407
rwrist -2.51002
rhand -8.42862 -54.5175
rfingers 7.12502
rthumb 17.4964 -83.7501
lclavicle -5.46658e-016 -5.56597e-015
lhumerus -28.1655 4.91598 81.7192
lradius 22.6024
lwrist -4.01824
lhand -21.965 -10.2088
lfingers 7.12502
lthumb 4.44258 19.7246
rfemur -20.9456 4.12686 19.7228
rtibia 4.28824
rfoot -17.9525 -7.87852
rtoes -36.3892
lfemur -24.2044 -10.1951 -18.9468
ltibia 8.47252
lfoot -7.72048 -0.311867
ltoes -31.224
107
root 22.8602 16.3704 30.4878 -152.427 -0.290258 177.472
lowerback -31.3822 -1.47317 -6.73786
upperback -0.783613 -0.0847856 -0.633004
thorax 15.5335 -0.782813 2.8474
lowerneck 2.57797 -1.61419 -4.94324
upperneck 4.85091 -3.21344 12.2998
head 1.26374 -1.76565 4.48612
rclavicle 3.23025e-015 7.95139e-015
rhumerus -37.2162 -20.6366 -77.7304
rradius 31.715
rwrist -2.52013
rhand -8.50567 -54.6218
rfingers 7.12502
rthumb 17.4222 -83.861
lclavicle 3.23025e-015 7.95139e-015
lhumerus -28.0519 4.69217 81.809
lradius 22.815
lwrist -3.79749
lhand -21.7717 -10.2582
lfingers 7.12502
lthumb 4.6292 19.6712
rfemur -21.1683 3.8 19.8876
rtibia 4.56905
rfoot -18.1099 -7.45547
rtoes -36.2478
lfemur -24.2955 -10.349 -18.7974
ltibia 8.50838
lfoot -7.74968 -0.11991
ltoes -31.5119
108
root 22.8635 16.3729 30.4865 -152.547 -0.315086 177.47
lowerback -31.2648 -1.52349 -6.75661
upperback -0.751267 -0.146283 -0.599979
thorax 15.5259 -0.808206 2.87094
lowerneck 2.5618 -1.62219 -4.94039
upperneck 4.81562 -3.21556 12.2728
head 1.25602 -1.76581 4.47725
rclavicle 1.36167e-014 -2.54444e-014
rhumerus -37.1631 -20.5225 -77.7879
rradius 31.7562
rwrist -2.58955
rhand -8.53202 -54.9111
rfingers 7.12502
rthumb 17.3969 -84.1525
lclavicle 1.36167e-014 -2.54444e-014
lhumerus -28.0776 4.61712 81.9148
lradius 23.1351
lwrist -3.67917
lhand -21.2466 -9.82846
lfingers 7.12502
lthumb 5.13626 20.0893
rfemur -21.0383 3.77488 19.9137
rtibia 4.59329
rfoot -18.1565 -7.39694
rtoes -35.8832
lfemur -24.1603 -10.6163 -18.7392
ltibia 8.52642
lfoot -7.81974 0.112399
ltoes -31.0848
109
root 22.8659 16.3687 30.4854 -152.485 -0.245546 177.433
lowerback -31.3099 -1.55928 -6.82396
upperback -0.779305 -0.177692 -0.572659
thorax 15.5149 -0.829551 2.9228
lowerneck 2.50407 -1.6117 -4.96927
upperneck 4.90491 -3.20768 12.2405
head 1.29097 -1.75849 4.47122
rclavicle -3.67752e-015 -7.55382e-015
rhumerus -37.1587 -20.3087 -77.8395
rradius 31.8526
rwrist -2.71607
rhand -8.54471 -55.2786
rfingers 7.12502
rthumb 17.3847 -84.5211
lclavicle -3.67752e-015 -7.55382e-015
lhumerus -28.1857 4.5121 82.0513
lradius 23.5044
lwrist -3.46556
lhand -21.8061 -9.53814
lfingers 7.12502
lthumb 4.59596 20.392
rfemur -21.073 3.83634 19.8438
rtibia 4.52724
rfoot -18.163 -7.35624
rtoes -35.5791
lfemur -24.208 -10.4894 -18.8095
ltibia 8.51343
lfoot -7.79657 0.0550461
ltoes -31.2953
